<?xml version="1.0" encoding="utf-8"?>
<!-- Generator: Adobe Illustrator 27.9.0, SVG Export Plug-In . SVG Version: 6.00 Build 0)  -->
<svg version="1.1" id="Layer_1" xmlns="http://www.w3.org/2000/svg" xmlns:xlink="http://www.w3.org/1999/xlink" x="0px" y="0px"
	 viewBox="0 0 612 612" style="enable-background:new 0 0 612 612;" xml:space="preserve">
<style type="text/css">
	.st0{fill:#DAE6EF;}
	.st1{opacity:0.2;fill:#CACBCB;}
	.st2{fill:#C6D9F0;}
	.st3{fill:#2B2F75;}
	.st4{fill:#2C3075;}
	.st5{fill:none;}
</style>
<g>
	<circle class="st0" cx="306" cy="306" r="276"/>
	<circle class="st1" cx="306" cy="311.8" r="198.7"/>
	<circle class="st2" cx="306" cy="306" r="103.2"/>
	<g>
		<g>
			<path class="st3" d="M229.6,202.9c-1.9,1.4-3.9,2.2-6,2.3c-2.1,0.1-4.2-0.4-6.2-1.4c-2-1.1-3.8-2.6-5.3-4.7
				c-1.6-2.1-2.6-4.2-3-6.4c-0.5-2.2-0.4-4.3,0.3-6.2c0.6-1.9,1.8-3.6,3.5-4.9c1.2-0.9,2.5-1.5,3.9-1.8c1.4-0.3,2.8-0.3,4.3-0.1
				c1.5,0.3,2.9,0.9,4.4,1.8s2.7,2.2,4,3.8l0.6,0.8l-16.6,12.5l-1.1-1.5l15.7-11.8l-0.3,1.2c-1.2-1.6-2.6-2.9-4.2-3.8
				c-1.6-0.9-3.2-1.3-4.8-1.3c-1.6,0-3.2,0.6-4.6,1.6c-1.4,1-2.3,2.4-2.8,4c-0.5,1.6-0.6,3.3-0.2,5.1c0.3,1.8,1.1,3.5,2.4,5.1
				l0.5,0.7c1.3,1.7,2.8,3.1,4.5,4c1.7,0.9,3.4,1.4,5.1,1.3s3.4-0.7,5-1.9c1.1-0.9,2-1.8,2.5-2.8s0.8-2,0.9-2.9c0.1-1,0.1-1.8,0-2.5
				l2-0.5c0.2,0.9,0.2,2,0.1,3.2c-0.1,1.2-0.6,2.4-1.2,3.7C232,200.7,231,201.8,229.6,202.9z"/>
			<path class="st3" d="M236.2,177.7l7.3,15.3l-1.8,0.9l-11.3-23.6l1.8-0.9l1.8,3.7l0.2-0.1c0-1.5,0.4-2.9,1.3-4.2
				c0.9-1.3,2.1-2.4,3.8-3.2c1.6-0.8,3.1-1.1,4.7-1c1.5,0.1,2.9,0.6,4.2,1.5c1.3,0.9,2.3,2.2,3.2,4l7.5,15.6l-1.8,0.9l-7.4-15.5
				c-1-2-2.3-3.3-4.1-4c-1.8-0.6-3.7-0.5-5.6,0.4c-1.3,0.6-2.3,1.5-3.1,2.5c-0.8,1.1-1.2,2.3-1.3,3.6
				C235.2,175,235.5,176.3,236.2,177.7z"/>
			<path class="st3" d="M266.4,155.9l0.5,1.8L256,161l-0.5-1.8L266.4,155.9z M257.4,152.1l2-0.6l7.5,25.2c0.4,1.4,1.1,2.4,2.2,2.9
				c1,0.5,2.2,0.6,3.4,0.2c0.3-0.1,0.6-0.2,0.8-0.3c0.3-0.1,0.5-0.3,0.8-0.5l1,1.6c-0.3,0.2-0.6,0.5-1,0.6c-0.4,0.2-0.8,0.3-1.2,0.5
				c-1.7,0.5-3.3,0.4-4.8-0.3c-1.5-0.7-2.5-2-3.1-3.8L257.4,152.1z"/>
			<path class="st3" d="M289.6,178.7c-2.3,0.3-4.5,0-6.3-0.9c-1.9-0.9-3.4-2.3-4.7-4.2c-1.2-1.9-2-4.1-2.4-6.7
				c-0.3-2.6-0.2-5,0.5-7.1c0.7-2.2,1.8-3.9,3.3-5.3c1.5-1.4,3.3-2.2,5.5-2.5c1.5-0.2,2.9-0.1,4.3,0.3c1.4,0.4,2.6,1.1,3.8,2.1
				c1.1,1,2.1,2.2,2.9,3.7c0.8,1.5,1.3,3.3,1.6,5.3l0.1,1l-20.6,2.8l-0.2-1.9l19.4-2.6l-0.8,0.9c-0.3-2-0.9-3.8-1.8-5.3
				c-0.9-1.5-2.1-2.7-3.6-3.5c-1.4-0.8-3-1-4.8-0.8c-1.7,0.2-3.2,0.9-4.4,2.1c-1.2,1.1-2.1,2.6-2.7,4.3s-0.7,3.6-0.5,5.6l0.1,0.9
				c0.3,2.2,0.9,4.1,1.9,5.7c1,1.6,2.3,2.8,3.8,3.6c1.6,0.8,3.3,1.1,5.3,0.8c1.4-0.2,2.6-0.6,3.6-1.2c0.9-0.6,1.7-1.3,2.2-2.1
				c0.6-0.8,0.9-1.5,1.2-2.2l2,0.5c-0.3,0.9-0.8,1.9-1.5,2.8c-0.7,1-1.7,1.8-2.9,2.6C292.8,178,291.3,178.5,289.6,178.7z"/>
			<path class="st3" d="M304.9,177.1l0.5-26.2l2,0l-0.1,4.1l0.2,0c0.6-1.3,1.6-2.4,3-3.2c1.4-0.8,2.9-1.2,4.6-1.1c0.2,0,0.4,0,0.6,0
				c0.2,0,0.4,0,0.5,0l0,2.1c-0.1,0-0.2,0-0.5-0.1c-0.2,0-0.5,0-0.7,0c-1.5,0-2.8,0.3-3.9,0.9c-1.1,0.6-2.1,1.5-2.7,2.5
				c-0.7,1.1-1,2.3-1.1,3.8l-0.4,17.2L304.9,177.1z"/>
			<path class="st3" d="M317.5,187.1l6.4-35.4l2,0.4l-1,5.8l0.3,0c0.6-1,1.3-2,2.2-2.8c0.9-0.8,2-1.4,3.2-1.7c1.2-0.4,2.5-0.4,4-0.1
				c2.1,0.4,3.8,1.3,5.1,2.7c1.3,1.4,2.2,3.2,2.7,5.4c0.5,2.2,0.5,4.5,0,7.1c-0.5,2.6-1.3,4.8-2.5,6.7c-1.2,1.9-2.7,3.2-4.4,4.1
				c-1.7,0.9-3.6,1.1-5.7,0.7c-1.5-0.3-2.7-0.8-3.7-1.5c-1-0.8-1.8-1.7-2.4-2.8c-0.6-1.1-1-2.2-1.2-3.4l-0.2,0l-2.7,15.3
				L317.5,187.1z M329.8,177.9c1.8,0.3,3.4,0.1,4.8-0.7c1.4-0.8,2.6-2,3.6-3.6c1-1.6,1.7-3.5,2.1-5.7c0.4-2.2,0.4-4.1,0.1-6
				c-0.4-1.8-1.1-3.4-2.1-4.6c-1.1-1.2-2.5-2-4.3-2.3c-1.7-0.3-3.3-0.1-4.8,0.7c-1.4,0.8-2.6,1.9-3.6,3.5c-1,1.6-1.7,3.5-2.1,5.7
				c-0.4,2.2-0.4,4.2,0,6.1c0.4,1.9,1.1,3.4,2.2,4.6C326.7,176.9,328.1,177.6,329.8,177.9z"/>
			<path class="st3" d="M344.9,183l8.6-24.7l1.9,0.7l-1.4,3.9l0.2,0.1c1-1.1,2.2-1.8,3.8-2.1c1.5-0.3,3.1-0.2,4.8,0.4
				c0.2,0.1,0.3,0.1,0.5,0.2c0.2,0.1,0.3,0.1,0.5,0.2l-0.7,2c-0.1,0-0.2-0.1-0.4-0.2c-0.2-0.1-0.4-0.2-0.7-0.3
				c-1.4-0.5-2.7-0.6-4-0.4c-1.3,0.2-2.4,0.7-3.4,1.6c-1,0.8-1.7,1.9-2.2,3.2l-5.7,16.3L344.9,183z"/>
			<path class="st3" d="M358.7,188.4l10.9-23.8l1.9,0.8l-10.9,23.8L358.7,188.4z M372.5,160.7c-0.4-0.2-0.7-0.5-0.9-0.9
				c-0.2-0.4-0.1-0.9,0-1.3c0.2-0.4,0.5-0.7,0.9-0.8c0.4-0.2,0.9-0.1,1.3,0c0.4,0.2,0.7,0.5,0.9,0.9c0.2,0.4,0.2,0.8,0,1.2
				c-0.2,0.4-0.5,0.7-0.9,0.9C373.3,161,372.9,160.9,372.5,160.7z"/>
			<path class="st3" d="M391.8,183.3l-1.9-0.6c0.3-1.5,0.3-2.8-0.2-4.1c-0.4-1.3-1.4-2.4-3-3.3c-1.6-1-3.2-1.4-4.8-1.3
				c-1.5,0.2-2.7,0.9-3.5,2.2c-0.7,1.1-0.9,2.2-0.6,3.3c0.3,1.1,1,2.3,2.2,3.6l2.9,3c1.5,1.5,2.4,3,2.7,4.5c0.3,1.5,0,3-0.9,4.4
				c-0.8,1.2-1.8,2.1-3,2.7c-1.2,0.5-2.6,0.7-4.1,0.5c-1.5-0.2-3-0.8-4.6-1.7c-2.1-1.3-3.5-2.8-4.2-4.6c-0.7-1.8-0.7-3.7,0-5.8
				l1.9,0.6c-0.6,1.7-0.6,3.2,0,4.6s1.7,2.6,3.3,3.6c1.8,1.1,3.5,1.6,5.2,1.4c1.7-0.2,2.9-0.9,3.7-2.3c1.3-2.1,0.8-4.3-1.4-6.6
				l-3-3.1c-1.5-1.6-2.5-3.1-2.8-4.7c-0.3-1.5,0-3,0.9-4.5c0.7-1.2,1.7-2.1,2.9-2.6c1.2-0.5,2.5-0.7,3.9-0.5
				c1.4,0.2,2.8,0.7,4.3,1.6c1.9,1.2,3.2,2.6,3.8,4.2C392.2,179.6,392.3,181.3,391.8,183.3z"/>
			<path class="st3" d="M392.5,211.2c-1.8-1.6-2.9-3.4-3.4-5.4c-0.5-2-0.4-4.1,0.2-6.3c0.7-2.2,1.9-4.2,3.6-6.1
				c1.8-1.9,3.7-3.3,5.8-4.2c2.1-0.9,4.1-1.2,6.2-0.9c2,0.3,3.8,1.1,5.4,2.6c1.1,1,1.9,2.1,2.5,3.5c0.6,1.3,0.9,2.7,0.9,4.2
				c0,1.5-0.3,3-1,4.6c-0.6,1.6-1.6,3.1-3,4.6l-0.7,0.7l-15.4-13.9l1.3-1.4l14.6,13.2l-1.2-0.1c1.4-1.5,2.3-3.1,2.9-4.8
				c0.6-1.7,0.7-3.4,0.3-5c-0.3-1.6-1.2-3-2.5-4.2c-1.3-1.2-2.8-1.8-4.4-2c-1.7-0.2-3.3,0.1-5,0.7c-1.7,0.7-3.2,1.8-4.6,3.3
				l-0.6,0.6c-1.5,1.6-2.5,3.3-3.1,5.1c-0.6,1.8-0.7,3.6-0.3,5.3c0.4,1.7,1.3,3.2,2.8,4.6c1.1,1,2.1,1.6,3.2,1.9
				c1.1,0.3,2.1,0.4,3.1,0.4c1-0.1,1.8-0.3,2.4-0.5l0.9,1.8c-0.9,0.4-1.9,0.6-3.1,0.7c-1.2,0.1-2.5-0.1-3.8-0.5
				C395.1,213.2,393.8,212.4,392.5,211.2z"/>
		</g>
	</g>
	<g>
		<g>
			<path class="st3" d="M223.5,101c-2.2,0.9-4.3,1.1-6.4,0.7c-2.1-0.4-3.9-1.4-5.6-2.9c-1.7-1.5-3-3.5-4-5.9c-1-2.4-1.4-4.8-1.3-7
				c0.1-2.3,0.7-4.2,1.8-6c1.1-1.7,2.7-3,4.7-3.8c1.4-0.6,2.8-0.8,4.2-0.8s2.8,0.4,4.2,1c1.4,0.7,2.6,1.6,3.7,2.9
				c1.1,1.3,2.1,2.8,2.9,4.7l0.4,0.9l-19.2,7.8l-0.7-1.7l18.2-7.4l-0.6,1c-0.8-1.9-1.8-3.4-3.1-4.7c-1.3-1.2-2.8-2.1-4.3-2.5
				c-1.6-0.4-3.2-0.2-4.9,0.4c-1.6,0.7-2.9,1.7-3.8,3.1c-0.9,1.4-1.4,3-1.5,4.9c-0.1,1.8,0.2,3.7,1,5.6l0.3,0.8c0.8,2,1.9,3.7,3.3,5
				c1.4,1.3,2.9,2.2,4.6,2.6c1.7,0.4,3.5,0.2,5.3-0.5c1.3-0.5,2.4-1.2,3.1-2.1c0.8-0.8,1.3-1.7,1.7-2.6c0.3-0.9,0.5-1.7,0.6-2.4h2
				c0,1-0.3,2-0.7,3.1c-0.4,1.1-1.2,2.2-2.1,3.2C226.4,99.5,225.1,100.4,223.5,101z"/>
			<path class="st3" d="M249.3,64.6l-2,27.8L245,93l-16.2-22.7l2.1-0.6l14.4,20.4l0.2-0.1l1.6-24.9L249.3,64.6z"/>
			<path class="st3" d="M271.3,87.7c-2.3,0.4-4.5,0.1-6.4-0.7c-1.9-0.9-3.5-2.2-4.8-4.1c-1.3-1.9-2.1-4.1-2.5-6.6
				c-0.4-2.6-0.3-4.9,0.3-7.1c0.6-2.2,1.7-4,3.1-5.4c1.5-1.4,3.3-2.3,5.4-2.7c1.5-0.2,2.9-0.2,4.3,0.2c1.4,0.4,2.7,1,3.8,2
				s2.2,2.2,3,3.6c0.8,1.5,1.4,3.2,1.7,5.2l0.2,1L259,76.4l-0.3-1.8l19.4-3.1l-0.8,0.9c-0.3-2-1-3.8-2-5.3s-2.2-2.6-3.7-3.4
				c-1.5-0.7-3.1-1-4.8-0.7c-1.7,0.3-3.2,1-4.4,2.2c-1.2,1.2-2.1,2.6-2.6,4.4c-0.5,1.7-0.6,3.6-0.3,5.6l0.1,0.9c0.4,2.2,1,4,2.1,5.6
				c1,1.6,2.3,2.8,3.9,3.5c1.6,0.8,3.4,1,5.3,0.7c1.4-0.2,2.6-0.7,3.5-1.3c0.9-0.6,1.7-1.4,2.2-2.2c0.5-0.8,0.9-1.5,1.1-2.2l2,0.5
				c-0.2,0.9-0.7,1.9-1.4,2.9c-0.7,1-1.6,1.9-2.8,2.7C274.4,86.9,273,87.5,271.3,87.7z"/>
			<path class="st3" d="M287,85.2l-1.8-26.1l2-0.1l0.3,4.1l0.2,0c0.5-1.4,1.4-2.5,2.7-3.4c1.3-0.9,2.8-1.4,4.5-1.5
				c0.2,0,0.4,0,0.6,0s0.4,0,0.5,0l0.1,2.1c-0.1,0-0.3,0-0.5,0c-0.2,0-0.5,0-0.7,0c-1.4,0.1-2.7,0.5-3.8,1.2
				c-1.1,0.7-1.9,1.6-2.5,2.8c-0.6,1.1-0.8,2.4-0.7,3.8l1.2,17.2L287,85.2z"/>
			<path class="st3" d="M303.3,94.2c-0.5,0-1-0.1-1.6-0.2c-0.5-0.1-1-0.3-1.4-0.5l0.7-1.8l0.3,0.1c1.5,0.6,2.8,0.6,3.9,0
				s2-1.8,2.7-3.7l1.3-3.3l-9-26.7l2.2,0l7.8,23.7l0.2,0l8.8-23.4l2.2,0l-11.7,30.4c-0.4,1.2-1,2.2-1.6,2.9
				c-0.6,0.8-1.4,1.4-2.2,1.7C305.1,94,304.2,94.2,303.3,94.2z"/>
			<path class="st3" d="M338,60.3l-0.2,1.8l-11.3-1.3l0.2-1.8L338,60.3z M331.2,53.3l2,0.2l-2.9,26.1c-0.2,1.5,0.1,2.6,0.9,3.5
				c0.8,0.9,1.8,1.4,3,1.5c0.3,0,0.6,0,0.9,0c0.3,0,0.6-0.1,0.9-0.1l0.3,1.9c-0.4,0.1-0.8,0.2-1.2,0.2c-0.4,0-0.8,0-1.3,0
				c-1.8-0.2-3.2-0.9-4.3-2.2c-1.1-1.3-1.5-2.8-1.3-4.7L331.2,53.3z"/>
			<path class="st3" d="M346.7,70.9l-3.4,16.6l-2-0.4l7-34.2l2,0.4l-2.6,12.6l0.2,0c0.9-1.2,2.1-2.1,3.6-2.6c1.5-0.5,3.1-0.6,5-0.2
				c1.7,0.4,3.2,1,4.4,2c1.2,1,2,2.3,2.4,3.8c0.5,1.5,0.5,3.2,0.1,5.1l-3.5,16.9l-2-0.4l3.5-16.8c0.5-2.2,0.2-4.1-0.9-5.7
				c-1-1.6-2.6-2.6-4.8-3c-1.4-0.3-2.8-0.2-4,0.1c-1.3,0.4-2.3,1.1-3.2,2.1C347.6,68.2,347,69.4,346.7,70.9z"/>
			<path class="st3" d="M366.8,93l7.3-25.2l2,0.6l-7.3,25.2L366.8,93z M376.4,63.7c-0.4-0.1-0.8-0.4-1-0.8c-0.2-0.4-0.3-0.8-0.1-1.3
				c0.1-0.4,0.4-0.7,0.8-1c0.4-0.2,0.8-0.3,1.3-0.1c0.5,0.1,0.8,0.4,1,0.8c0.2,0.4,0.3,0.8,0.2,1.2c-0.1,0.4-0.4,0.8-0.8,1
				S376.9,63.8,376.4,63.7z"/>
			<path class="st3" d="M383.7,80.4l-6,15.9l-1.9-0.7l9.3-24.5l1.9,0.7l-1.5,3.9l0.2,0.1c1.1-1,2.4-1.7,3.9-2
				c1.6-0.3,3.2-0.1,4.9,0.6c1.7,0.6,3,1.5,4,2.7c1,1.2,1.6,2.5,1.8,4.1c0.2,1.6,0,3.2-0.7,5l-6.1,16.2l-1.9-0.7l6.1-16.1
				c0.8-2.1,0.8-4,0-5.8c-0.8-1.7-2.2-3-4.2-3.8c-1.3-0.5-2.7-0.7-4-0.5c-1.3,0.2-2.5,0.7-3.5,1.5C385.1,77.9,384.3,79,383.7,80.4z"
				/>
			<path class="st3" d="M403.4,118.6c-2.2-1.1-3.8-2.5-4.8-4.1c-1-1.6-1.5-3.3-1.4-5.1l2-0.1c0,0.9,0.1,1.9,0.4,2.8
				c0.3,0.9,0.9,1.8,1.6,2.6c0.8,0.8,1.8,1.6,3,2.2c2.2,1.2,4.3,1.5,6.2,1c1.9-0.5,3.5-1.9,4.7-4.3l3-5.8l-0.2-0.1
				c-0.9,0.8-1.9,1.4-3,1.9c-1.1,0.4-2.3,0.6-3.5,0.5c-1.2-0.1-2.5-0.4-3.7-1.1c-1.8-1-3.2-2.3-4.1-3.9c-0.9-1.7-1.3-3.6-1.2-5.7
				c0.1-2.1,0.8-4.4,2-6.7c1.2-2.3,2.7-4.2,4.4-5.6c1.7-1.4,3.5-2.2,5.5-2.5c1.9-0.3,3.8,0.1,5.7,1c1.3,0.7,2.4,1.5,3.1,2.6
				c0.7,1,1.2,2.1,1.4,3.3c0.2,1.2,0.3,2.4,0.1,3.6l0.2,0.1l2.7-5.2l1.8,0.9L417,114.8c-1,1.9-2.2,3.3-3.7,4.2
				c-1.4,0.9-3,1.3-4.7,1.2S405.2,119.6,403.4,118.6z M408.9,107.5c2.3,1.2,4.6,1.3,6.9,0.2c2.3-1,4.2-3.1,5.8-6.1
				c1-2,1.6-3.9,1.8-5.7c0.2-1.8,0-3.5-0.7-5c-0.7-1.5-1.8-2.6-3.4-3.5c-1.6-0.8-3.2-1.1-4.8-0.8c-1.6,0.3-3.1,1.1-4.5,2.3
				c-1.4,1.2-2.6,2.8-3.6,4.7c-1,1.9-1.6,3.8-1.7,5.6c-0.2,1.8,0.1,3.4,0.8,4.8C406.2,105.6,407.3,106.7,408.9,107.5z"/>
		</g>
	</g>
	<g>
		<g>
			<path class="st3" d="M278.5,311.8c-2.1,0-3.9-0.4-5.5-1.2s-2.9-1.9-3.9-3.3s-1.4-3-1.5-4.8h2.1c0,1.4,0.5,2.7,1.2,3.8
				s1.8,1.9,3.1,2.5s2.8,0.9,4.4,0.9c1.7,0,3.3-0.3,4.6-1s2.3-1.6,3.1-2.8s1.1-2.5,1.1-3.9c0-1.6-0.4-2.9-1.2-4.1s-1.9-2.1-3.4-2.7
				s-3.1-1-5-1h-1.3v-2h1.3c1.6,0,3.1-0.3,4.4-0.9s2.3-1.4,3-2.5s1.1-2.4,1.1-3.8c0-1.4-0.3-2.6-1-3.7s-1.5-1.9-2.7-2.6
				s-2.5-0.9-4-0.9c-1.5,0-2.8,0.3-4,0.9s-2.1,1.5-2.8,2.5s-1.1,2.3-1.1,3.8h-2.1c0-1.8,0.5-3.4,1.4-4.8s2.1-2.5,3.6-3.2
				s3.2-1.2,5.1-1.2c1.9,0,3.6,0.4,5.1,1.2s2.6,1.9,3.4,3.3s1.2,2.9,1.2,4.6c0,2-0.6,3.7-1.7,5.2s-2.6,2.4-4.6,3v0.2
				c2.2,0.5,4,1.5,5.4,3.1s2,3.4,2,5.7c0,1.8-0.5,3.4-1.4,4.9s-2.2,2.6-3.8,3.5S280.6,311.8,278.5,311.8z"/>
			<path class="st3" d="M306.7,311.8c-1.5,0-2.9-0.3-4.2-0.9s-2.5-1.6-3.5-2.9s-1.8-3-2.4-5.1s-0.9-4.6-0.9-7.5
				c0-2.6,0.2-5.1,0.6-7.4s1.1-4.4,2-6.2s2.1-3.2,3.5-4.3s3.2-1.6,5.2-1.6c1.8,0,3.4,0.4,4.8,1.2s2.5,1.9,3.3,3.2s1.3,3,1.5,4.8
				h-2.1c-0.2-2.1-1-3.8-2.3-5.2s-3-2-5.1-2c-3,0-5.3,1.5-6.9,4.5s-2.4,7.2-2.4,12.7h0.2c0.5-1.1,1.1-2.1,2-2.9s1.9-1.5,3.1-2
				s2.4-0.7,3.7-0.7c1.9,0,3.6,0.5,5.2,1.4s2.8,2.3,3.8,4s1.4,3.6,1.4,5.7c0,2-0.4,3.8-1.3,5.5s-2.1,3.1-3.7,4.1
				S308.8,311.8,306.7,311.8z M306.7,309.9c1.6,0,3-0.4,4.3-1.2s2.2-1.9,3-3.3s1.1-2.9,1.1-4.6c0-1.7-0.4-3.3-1.1-4.6
				s-1.8-2.5-3-3.3s-2.7-1.2-4.3-1.2c-1.7,0-3.1,0.4-4.5,1.3s-2.3,2-3,3.5s-0.9,3-0.7,4.7c0.3,1.8,0.8,3.4,1.5,4.7s1.7,2.4,2.9,3.1
				S305.3,309.9,306.7,309.9z"/>
			<path class="st3" d="M334.1,311.8c-2.3,0-4.3-0.7-6-2.1s-3-3.5-3.9-6.2s-1.3-5.9-1.3-9.6c0-3.7,0.4-6.9,1.3-9.6s2.2-4.7,3.9-6.2
				s3.7-2.2,6-2.2s4.3,0.7,6,2.2s3,3.5,3.8,6.2s1.3,5.9,1.3,9.6c0,3.7-0.4,6.9-1.3,9.6s-2.2,4.7-3.8,6.2S336.5,311.8,334.1,311.8z
				 M334.1,309.9c1.9,0,3.5-0.6,4.9-1.9s2.4-3.1,3.1-5.5s1.1-5.2,1.1-8.6c0-3.3-0.4-6.2-1.1-8.6s-1.8-4.2-3.1-5.5s-3-1.9-4.9-1.9
				c-2.8,0-5.1,1.4-6.7,4.2s-2.4,6.8-2.4,11.8c0,3.3,0.4,6.2,1.1,8.6s1.8,4.2,3.2,5.5S332.2,309.9,334.1,309.9z"/>
			<path class="st3" d="M262.8,340.4c-1,0-2-0.2-2.8-0.6s-1.5-0.9-1.9-1.6s-0.7-1.5-0.7-2.4h1.1c0,0.7,0.2,1.3,0.6,1.9
				s0.9,1,1.6,1.3s1.4,0.5,2.2,0.5c0.9,0,1.6-0.2,2.3-0.5s1.2-0.8,1.5-1.4s0.6-1.2,0.6-2c0-0.8-0.2-1.5-0.6-2s-1-1-1.7-1.4
				s-1.6-0.5-2.5-0.5h-0.6v-1h0.6c0.8,0,1.5-0.1,2.2-0.4s1.1-0.7,1.5-1.3s0.6-1.2,0.6-1.9c0-0.7-0.2-1.3-0.5-1.9s-0.8-1-1.3-1.3
				s-1.2-0.5-2-0.5c-0.7,0-1.4,0.2-2,0.5s-1.1,0.7-1.4,1.3s-0.5,1.2-0.5,1.9h-1.1c0-0.9,0.2-1.7,0.7-2.4s1-1.2,1.8-1.6
				s1.6-0.6,2.6-0.6c1,0,1.8,0.2,2.5,0.6s1.3,1,1.7,1.6s0.6,1.4,0.6,2.3c0,1-0.3,1.9-0.8,2.6s-1.3,1.2-2.3,1.5v0.1
				c1.1,0.2,2,0.8,2.7,1.5s1,1.7,1,2.8c0,0.9-0.2,1.7-0.7,2.5s-1.1,1.3-1.9,1.7S263.8,340.4,262.8,340.4z"/>
			<path class="st3" d="M278.3,340.2v-13.1h1v2h0.1c0.3-0.7,0.7-1.2,1.3-1.6s1.3-0.6,2.2-0.6c1,0,1.7,0.2,2.3,0.7s1,1.1,1.3,1.9h0.1
				c0.2-0.8,0.7-1.4,1.4-1.9s1.5-0.7,2.5-0.7c1.3,0,2.2,0.4,2.9,1.2s1,1.9,1,3.3v8.8h-1v-8.8c0-1.1-0.3-2-0.8-2.6s-1.3-0.9-2.3-0.9
				c-1.1,0-1.9,0.3-2.5,1s-0.9,1.5-0.9,2.6v8.7h-1v-8.8c0-1-0.3-1.9-0.8-2.5s-1.3-1-2.3-1c-0.7,0-1.3,0.2-1.8,0.5s-0.9,0.8-1.2,1.3
				s-0.4,1.2-0.4,1.9v8.6H278.3z"/>
			<path class="st3" d="M303.1,340.4c-1.1,0-2-0.3-2.9-0.9s-1.5-1.4-2-2.4s-0.7-2.2-0.7-3.5s0.2-2.5,0.7-3.5s1.1-1.8,2-2.4
				s1.8-0.9,2.9-0.9s2,0.3,2.9,0.9s1.5,1.4,2,2.4s0.7,2.2,0.7,3.5c0,1.3-0.2,2.5-0.7,3.5s-1.1,1.8-2,2.4S304.2,340.4,303.1,340.4z
				 M303.1,339.5c0.9,0,1.7-0.3,2.4-0.8s1.2-1.2,1.6-2.1s0.6-1.9,0.6-2.9c0-1.1-0.2-2.1-0.6-2.9s-0.9-1.6-1.6-2.1s-1.5-0.8-2.4-0.8
				c-0.9,0-1.7,0.3-2.4,0.8s-1.2,1.2-1.6,2.1s-0.6,1.9-0.6,2.9c0,1.1,0.2,2.1,0.6,2.9s0.9,1.6,1.6,2.1S302.2,339.5,303.1,339.5z"/>
			<path class="st3" d="M312.9,331.7v8.5h-1v-13.1h1v2.1h0.1c0.3-0.7,0.8-1.2,1.5-1.6s1.5-0.6,2.4-0.6c0.9,0,1.7,0.2,2.3,0.6
				s1.2,0.9,1.6,1.6s0.6,1.5,0.6,2.5v8.6h-1v-8.6c0-1.1-0.3-2-1-2.7s-1.5-1-2.6-1c-0.7,0-1.4,0.2-1.9,0.5s-1,0.8-1.3,1.3
				S312.9,330.9,312.9,331.7z"/>
			<path class="st3" d="M329.9,327.1v0.9h-5.7v-0.9H329.9z M326.2,323.9h1v13.1c0,0.7,0.2,1.3,0.6,1.7s1,0.6,1.6,0.6
				c0.2,0,0.3,0,0.4,0s0.3-0.1,0.4-0.1l0.3,0.9c-0.2,0.1-0.4,0.1-0.6,0.2s-0.4,0.1-0.6,0.1c-0.9,0-1.6-0.3-2.3-0.8s-0.9-1.3-0.9-2.3
				V323.9z"/>
			<path class="st3" d="M334.4,331.7v8.5h-1v-17.5h1v6.4h0.1c0.3-0.7,0.8-1.2,1.5-1.6s1.5-0.6,2.4-0.6c0.9,0,1.7,0.2,2.3,0.6
				s1.2,0.9,1.6,1.6s0.6,1.5,0.6,2.5v8.6h-1v-8.6c0-1.1-0.3-2-1-2.7s-1.5-1-2.6-1c-0.7,0-1.4,0.2-2,0.5s-1,0.8-1.4,1.3
				S334.4,330.9,334.4,331.7z"/>
			<path class="st3" d="M355.2,329.9l-1,0.3c-0.2-0.7-0.6-1.3-1.1-1.7s-1.2-0.6-2.1-0.6c-1,0-1.7,0.2-2.4,0.7s-0.9,1.1-0.9,1.9
				c0,0.6,0.2,1.1,0.6,1.6s1,0.7,1.9,0.9l2,0.5c1,0.2,1.8,0.7,2.3,1.2s0.8,1.3,0.8,2.1c0,0.7-0.2,1.4-0.6,1.9s-0.9,1-1.6,1.3
				s-1.5,0.5-2.4,0.5c-1.2,0-2.2-0.3-3-0.9s-1.3-1.4-1.5-2.5l1-0.2c0.2,0.9,0.6,1.5,1.2,2s1.4,0.7,2.3,0.7c1.1,0,1.9-0.3,2.6-0.8
				s1-1.2,1-2c0-1.2-0.8-2-2.3-2.4l-2.1-0.5c-1.1-0.3-1.9-0.7-2.4-1.3s-0.8-1.3-0.8-2.1c0-0.7,0.2-1.3,0.6-1.9s0.9-0.9,1.5-1.2
				s1.4-0.5,2.2-0.5c1.1,0,2,0.3,2.7,0.8S354.9,328.9,355.2,329.9z"/>
		</g>
	</g>
	<g>
		<g>
			<path class="st4" d="M236.4,444.7l0.5-1l16.2-11l0.7,0.4l-0.9,2l-0.6-0.3l-13.8,9.3l-0.1,0.1l11.4,5.4l-0.6,1.2L236.4,444.7z
				 M243.3,453.8l2.4-5l0.2-0.5l7.4-15.4l1.2,0.6l-10,20.9L243.3,453.8z"/>
			<path class="st4" d="M264,449.6l-0.5,1.2l-8-3.1l0.5-1.2L264,449.6z"/>
			<path class="st4" d="M270.9,464.5c-0.9-0.3-1.7-0.7-2.3-1.3c-0.7-0.6-1.2-1.5-1.5-2.5c-0.4-1-0.5-2.2-0.5-3.7
				c0-1.4,0.3-3.1,0.9-4.9c0.5-1.7,1.1-3.2,1.8-4.6c0.7-1.4,1.5-2.6,2.4-3.6c0.9-1,1.9-1.7,2.9-2.1c1.1-0.4,2.2-0.4,3.4-0.1
				c1.1,0.3,2,0.9,2.6,1.6c0.7,0.7,1.1,1.6,1.3,2.6c0.2,1,0.2,2.1,0,3.3l-1.2-0.4c0.3-1.4,0.1-2.6-0.4-3.7c-0.5-1.1-1.4-1.8-2.7-2.2
				c-1.8-0.5-3.5,0-5,1.6c-1.5,1.6-2.8,4.1-3.9,7.6l0.1,0c0.5-0.6,1.1-1.1,1.8-1.5c0.7-0.4,1.4-0.6,2.2-0.7c0.8-0.1,1.6,0,2.3,0.2
				c1.1,0.3,2.1,0.9,2.8,1.8c0.7,0.9,1.2,2,1.5,3.2c0.2,1.2,0.2,2.5-0.3,3.9c-0.4,1.3-1,2.4-1.8,3.3c-0.8,0.9-1.8,1.6-3,1.9
				S272.2,464.9,270.9,464.5z M271.3,463.2c1,0.3,1.9,0.3,2.8,0c0.9-0.3,1.7-0.8,2.4-1.6c0.7-0.8,1.2-1.7,1.5-2.8
				c0.3-1.1,0.4-2.1,0.2-3.2c-0.2-1-0.6-1.9-1.2-2.6c-0.6-0.7-1.4-1.3-2.3-1.5c-1-0.3-2-0.3-2.9,0c-1,0.3-1.8,0.9-2.5,1.7
				c-0.7,0.8-1.1,1.8-1.3,2.9c-0.2,1.2-0.2,2.3,0,3.3c0.2,1,0.6,1.8,1.1,2.5C269.7,462.5,270.4,463,271.3,463.2z"/>
			<path class="st4" d="M292.2,469.5l1.3-17.4l1.2,0.1l-0.2,2.6l0.1,0c0.4-0.8,1-1.5,1.8-1.9c0.8-0.5,1.7-0.6,2.8-0.6
				c1.2,0.1,2.1,0.5,2.8,1.1c0.7,0.7,1.1,1.5,1.4,2.6l0.1,0c0.4-1,1-1.8,1.9-2.3s1.9-0.8,3.1-0.7c1.6,0.1,2.7,0.7,3.5,1.9
				s1,2.6,0.9,4.5l-0.9,11.6l-1.3-0.1l0.9-11.6c0.1-1.5-0.1-2.6-0.7-3.5c-0.6-0.9-1.5-1.4-2.8-1.5c-1.3-0.1-2.4,0.3-3.2,1.1
				c-0.8,0.8-1.2,2-1.3,3.3l-0.9,11.5l-1.3-0.1l0.9-11.7c0.1-1.4-0.1-2.5-0.7-3.4c-0.6-0.9-1.5-1.4-2.8-1.5
				c-0.9-0.1-1.6,0.1-2.3,0.5s-1.2,0.9-1.6,1.6c-0.4,0.7-0.6,1.5-0.7,2.5l-0.9,11.4L292.2,469.5z"/>
			<path class="st4" d="M325.8,470.3c-1.3,0.1-2.6-0.1-3.7-0.8s-2.1-1.6-2.8-2.9c-0.7-1.3-1.2-2.8-1.4-4.5c-0.2-1.7-0.1-3.3,0.4-4.7
				c0.5-1.4,1.2-2.6,2.1-3.4c1-0.9,2.1-1.4,3.5-1.5c1.3-0.1,2.6,0.1,3.7,0.8c1.1,0.7,2.1,1.6,2.8,2.9c0.7,1.3,1.2,2.8,1.4,4.5
				c0.2,1.7,0.1,3.3-0.4,4.7c-0.5,1.4-1.2,2.6-2.1,3.5C328.3,469.6,327.2,470.1,325.8,470.3z M325.7,469c1.1-0.1,2.1-0.6,2.9-1.4
				s1.3-1.8,1.7-3c0.3-1.2,0.4-2.5,0.3-4c-0.2-1.4-0.5-2.7-1.1-3.8s-1.4-2-2.3-2.6c-0.9-0.6-2-0.8-3.1-0.7c-1.1,0.1-2.1,0.6-2.9,1.4
				c-0.8,0.8-1.3,1.8-1.7,3c-0.3,1.2-0.4,2.5-0.3,4c0.2,1.4,0.5,2.7,1.1,3.8c0.6,1.1,1.4,2,2.3,2.6
				C323.5,468.9,324.5,469.1,325.7,469z"/>
			<path class="st4" d="M337.1,456.7l2.9,10.9l-1.2,0.3l-4.4-16.8l1.2-0.3l0.7,2.7l0.1,0c0.2-1,0.6-1.8,1.2-2.6
				c0.7-0.7,1.6-1.3,2.7-1.6c1.1-0.3,2.1-0.3,3,0c0.9,0.3,1.7,0.8,2.4,1.6c0.7,0.8,1.2,1.8,1.5,3l2.9,11.1l-1.2,0.3l-2.9-11
				c-0.4-1.4-1.1-2.5-2.1-3.1s-2.2-0.8-3.5-0.5c-0.9,0.2-1.6,0.6-2.2,1.2c-0.6,0.6-1,1.3-1.2,2.1
				C336.9,454.8,336.9,455.7,337.1,456.7z"/>
			<path class="st4" d="M355.5,444.4l0.4,1.1l-6.6,2.6l-0.4-1.1L355.5,444.4z M349.6,442.3l1.2-0.5l6.3,16.3
				c0.4,0.9,0.9,1.5,1.6,1.8c0.7,0.3,1.4,0.3,2.1,0c0.2-0.1,0.3-0.2,0.5-0.2c0.2-0.1,0.3-0.2,0.5-0.3l0.7,1
				c-0.2,0.2-0.4,0.3-0.6,0.5c-0.2,0.1-0.5,0.3-0.7,0.4c-1,0.4-2.1,0.4-3,0c-1-0.4-1.7-1.2-2.2-2.4L349.6,442.3z"/>
			<path class="st4" d="M363.1,447.8l5.2,10l-1.1,0.6l-10.7-20.6l1.1-0.6l3.9,7.6l0.1-0.1c-0.1-1,0.1-1.9,0.6-2.8
				c0.5-0.9,1.3-1.6,2.3-2.1c1-0.5,2-0.7,2.9-0.7c1,0.1,1.9,0.4,2.7,1c0.8,0.6,1.6,1.5,2.1,2.6l5.3,10.2l-1.1,0.6l-5.3-10.1
				c-0.7-1.3-1.6-2.2-2.8-2.6s-2.3-0.3-3.5,0.3c-0.8,0.4-1.4,1-1.9,1.7c-0.4,0.7-0.7,1.5-0.7,2.4C362.4,446,362.7,446.9,363.1,447.8
				z"/>
			<path class="st4" d="M384.3,432.3l-0.8,1c-0.8-0.6-1.6-1-2.4-1.1c-0.8-0.1-1.7,0.2-2.7,0.8c-1,0.7-1.6,1.5-1.9,2.4
				c-0.3,1-0.1,1.8,0.4,2.7c0.5,0.7,1.1,1.1,1.8,1.3c0.7,0.2,1.6,0.1,2.6-0.3l2.5-0.9c1.2-0.4,2.4-0.5,3.3-0.3
				c1,0.2,1.8,0.8,2.4,1.8c0.5,0.8,0.8,1.6,0.8,2.5c0,0.9-0.2,1.7-0.7,2.6c-0.5,0.8-1.2,1.6-2.1,2.2c-1.3,0.9-2.5,1.2-3.8,1.2
				c-1.2-0.1-2.4-0.6-3.4-1.6l0.8-1c0.8,0.8,1.7,1.2,2.7,1.3c1,0.1,1.9-0.2,2.9-0.9c1.1-0.7,1.8-1.6,2.1-2.7c0.3-1,0.2-2-0.4-2.8
				c-0.9-1.4-2.3-1.7-4.2-1l-2.5,0.9c-1.3,0.5-2.5,0.6-3.4,0.3c-1-0.3-1.8-0.9-2.4-1.8c-0.5-0.8-0.8-1.6-0.8-2.4
				c0-0.8,0.2-1.7,0.6-2.4c0.4-0.8,1.1-1.5,2-2.1c1.1-0.8,2.3-1.1,3.4-1S383.3,431.5,384.3,432.3z"/>
		</g>
	</g>
	<path id="SVGID_x5F_1_x5F_" class="st5" d="M97.9,400.2C138.4,491.4,214.4,557,306,557s187.7-68.7,221.5-182.1"/>
	<text>	<textPath  xlink:href="#SVGID_x5F_1_x5F_" startOffset="25.2502%">
	</textPath>
</text>
	<g>
		<g>
			<path class="st4" d="M235.6,547c-1.3-0.4-2.3-1-3.2-1.8c-0.9-0.8-1.5-1.8-1.8-2.9s-0.3-2.2,0-3.4c0.3-0.9,0.7-1.7,1.3-2.4
				c0.6-0.7,1.3-1.2,2.1-1.6c0.8-0.4,1.7-0.5,2.5-0.5l0-0.1c-1-0.7-1.6-1.6-2-2.7c-0.4-1.1-0.4-2.3-0.1-3.5c0.3-1.1,0.9-2,1.6-2.7
				c0.8-0.7,1.7-1.2,2.7-1.4s2.1-0.2,3.3,0.1c1.1,0.3,2,0.9,2.8,1.6s1.3,1.7,1.6,2.7c0.3,1,0.3,2.1,0,3.2c-0.3,1.2-1,2.2-1.9,3
				s-2,1.2-3.1,1.2l0,0.1c0.8,0.4,1.4,1,1.9,1.7c0.5,0.8,0.8,1.6,0.9,2.5c0.1,0.9,0.1,1.8-0.2,2.7c-0.3,1.1-0.9,2.1-1.8,2.9
				c-0.9,0.8-1.9,1.3-3,1.5C238.1,547.4,236.9,547.3,235.6,547z M235.9,545.7c1.1,0.3,2,0.4,3,0.2c0.9-0.2,1.8-0.6,2.4-1.2
				s1.2-1.4,1.4-2.3c0.3-0.9,0.3-1.9,0-2.8c-0.3-0.9-0.7-1.7-1.4-2.4c-0.7-0.7-1.5-1.2-2.6-1.5s-2-0.3-3-0.1c-1,0.2-1.8,0.6-2.5,1.2
				c-0.7,0.6-1.2,1.4-1.5,2.4c-0.3,0.9-0.3,1.8,0,2.7c0.3,0.9,0.7,1.7,1.4,2.3C234,544.9,234.9,545.4,235.9,545.7z M239.1,534.6
				c0.9,0.3,1.7,0.3,2.6,0.1c0.8-0.2,1.6-0.6,2.2-1.2c0.6-0.6,1.1-1.3,1.3-2.2c0.2-0.9,0.3-1.7,0-2.5c-0.2-0.8-0.6-1.5-1.2-2.1
				c-0.6-0.6-1.3-1-2.2-1.3c-0.9-0.3-1.8-0.3-2.6-0.1c-0.8,0.2-1.6,0.6-2.2,1.1c-0.6,0.6-1,1.3-1.3,2.2c-0.3,0.9-0.3,1.7-0.1,2.6
				c0.2,0.8,0.6,1.6,1.2,2.2C237.5,533.9,238.3,534.3,239.1,534.6z"/>
			<path class="st4" d="M258,540.1l-0.3,1.3l-8.4-1.8l0.3-1.3L258,540.1z"/>
			<path class="st4" d="M270,530.6l-3.9,22.9l-1.3-0.2l3.6-21.4l-0.1,0l-5.4,2.6l0.3-1.5l5.4-2.6L270,530.6z"/>
			<path class="st4" d="M272.2,554.4l0.1-1.1l8-7.8c1.1-1.1,2.1-2.1,2.7-2.9c0.7-0.8,1.2-1.5,1.5-2.2c0.3-0.7,0.5-1.4,0.6-2.1
				c0.1-1,0-1.8-0.3-2.6c-0.3-0.8-0.8-1.4-1.5-1.9c-0.7-0.5-1.5-0.8-2.4-0.9c-0.9-0.1-1.8,0-2.6,0.4c-0.8,0.4-1.4,0.9-1.9,1.6
				c-0.5,0.7-0.8,1.5-0.9,2.5l-1.3-0.1c0.1-1.2,0.5-2.2,1.1-3.1c0.6-0.9,1.4-1.6,2.4-2c1-0.5,2.1-0.6,3.2-0.5c1.2,0.1,2.2,0.5,3,1.1
				c0.8,0.6,1.5,1.4,1.9,2.4c0.4,1,0.6,2,0.4,3.2c-0.1,0.8-0.3,1.6-0.7,2.4c-0.4,0.8-0.9,1.6-1.7,2.5c-0.8,0.9-1.8,2-3.1,3.3
				l-6.7,6.6l0,0.1l11.4,1.3l-0.1,1.3L272.2,554.4z"/>
			<path class="st4" d="M299.7,556.8l0-17.4l1.2,0l0,2.6h0.1c0.3-0.9,0.9-1.6,1.6-2.1c0.8-0.5,1.7-0.8,2.8-0.8
				c1.2,0,2.2,0.3,2.9,0.9c0.7,0.6,1.3,1.4,1.6,2.5l0.1,0c0.3-1,0.9-1.9,1.7-2.5c0.8-0.6,1.8-0.9,3.1-0.9c1.6,0,2.8,0.5,3.6,1.6
				s1.3,2.5,1.3,4.4l0,11.7l-1.3,0l0-11.7c0-1.5-0.3-2.6-1-3.4c-0.7-0.8-1.6-1.2-2.9-1.2c-1.3,0-2.4,0.5-3.1,1.4
				c-0.7,0.9-1.1,2-1.1,3.4l0,11.6l-1.3,0l0-11.8c0-1.4-0.3-2.5-1-3.3c-0.6-0.9-1.6-1.3-2.9-1.3c-0.9,0-1.6,0.2-2.3,0.6
				c-0.6,0.4-1.1,1-1.5,1.8c-0.3,0.7-0.5,1.6-0.5,2.5l0,11.4L299.7,556.8z"/>
			<path class="st4" d="M332.3,555.9c-1.3,0.2-2.6-0.1-3.7-0.8c-1.1-0.7-2.1-1.6-2.8-2.9c-0.8-1.3-1.2-2.8-1.4-4.5
				c-0.2-1.7-0.1-3.3,0.4-4.7c0.4-1.4,1.2-2.6,2.1-3.5c1-0.9,2.1-1.4,3.4-1.6c1.3-0.2,2.6,0.1,3.7,0.7c1.1,0.6,2.1,1.6,2.8,2.9
				c0.8,1.3,1.2,2.8,1.4,4.5c0.2,1.7,0.1,3.3-0.4,4.7c-0.4,1.4-1.1,2.6-2.1,3.5C334.8,555.3,333.6,555.8,332.3,555.9z M332.1,554.7
				c1.1-0.1,2.1-0.6,2.9-1.4c0.8-0.8,1.3-1.8,1.7-3c0.3-1.2,0.4-2.5,0.3-4c-0.2-1.4-0.5-2.7-1.2-3.8c-0.6-1.1-1.4-2-2.3-2.5
				c-0.9-0.6-2-0.8-3.1-0.7c-1.1,0.1-2.1,0.6-2.9,1.4c-0.8,0.8-1.3,1.8-1.7,3c-0.3,1.2-0.4,2.5-0.3,4c0.2,1.4,0.6,2.7,1.2,3.8
				c0.6,1.1,1.4,2,2.3,2.5C330,554.6,331,554.8,332.1,554.7z"/>
			<path class="st4" d="M343.4,542.6l2.3,11l-1.2,0.3l-3.6-17l1.2-0.3l0.6,2.7l0.1,0c0.2-1,0.7-1.8,1.4-2.5c0.7-0.7,1.6-1.2,2.8-1.4
				c1.1-0.2,2.1-0.2,3,0.1c0.9,0.3,1.7,0.9,2.3,1.7c0.6,0.8,1.1,1.8,1.4,3.1l2.3,11.2l-1.2,0.3l-2.3-11.2c-0.3-1.5-1-2.5-2-3.3
				c-1-0.7-2.2-0.9-3.5-0.7c-0.9,0.2-1.6,0.6-2.2,1.1s-1,1.3-1.3,2.1C343.2,540.6,343.2,541.6,343.4,542.6z"/>
			<path class="st4" d="M362.5,531.6l0.3,1.2l-6.9,1.9l-0.3-1.2L362.5,531.6z M356.9,528.9l1.2-0.3l4.7,16.8c0.3,0.9,0.7,1.6,1.4,2
				c0.7,0.4,1.4,0.4,2.1,0.2c0.2-0.1,0.4-0.1,0.5-0.2s0.3-0.2,0.5-0.3l0.6,1.1c-0.2,0.2-0.4,0.3-0.6,0.4c-0.2,0.1-0.5,0.2-0.7,0.3
				c-1.1,0.3-2.1,0.2-3-0.3c-0.9-0.5-1.6-1.4-1.9-2.6L356.9,528.9z"/>
			<path class="st4" d="M369.8,535.8l3.7,10.7l-1.2,0.4l-7.6-21.9l1.2-0.4l2.8,8.1l0.1,0c0.1-1,0.4-1.9,1-2.7
				c0.6-0.8,1.5-1.4,2.6-1.8c1.1-0.4,2.1-0.5,3-0.3s1.8,0.6,2.6,1.4s1.3,1.7,1.7,2.9l3.8,10.8l-1.2,0.4l-3.8-10.8
				c-0.5-1.4-1.3-2.4-2.4-3c-1.1-0.6-2.3-0.6-3.6-0.2c-0.9,0.3-1.6,0.8-2.1,1.4c-0.5,0.6-0.9,1.4-1,2.2
				C369.3,534,369.4,534.9,369.8,535.8z"/>
			<path class="st4" d="M393.2,524.1l-1,0.8c-0.6-0.8-1.4-1.3-2.2-1.5c-0.8-0.3-1.7-0.2-2.8,0.3c-1.1,0.5-1.9,1.2-2.3,2
				c-0.4,0.9-0.5,1.8-0.1,2.7c0.3,0.8,0.8,1.3,1.5,1.6c0.7,0.3,1.6,0.4,2.7,0.2l2.6-0.4c1.3-0.2,2.4-0.1,3.3,0.3
				c0.9,0.4,1.6,1.2,2,2.2c0.4,0.9,0.5,1.8,0.3,2.6c-0.2,0.9-0.6,1.7-1.2,2.4c-0.6,0.7-1.5,1.3-2.5,1.8c-1.4,0.6-2.7,0.7-3.9,0.4
				c-1.2-0.3-2.2-1.1-3-2.3l1-0.8c0.7,1,1.5,1.6,2.4,1.8c0.9,0.2,1.9,0.1,3-0.3c1.2-0.5,2.1-1.3,2.6-2.2c0.5-0.9,0.5-1.9,0.1-2.9
				c-0.6-1.5-2-2.1-4-1.8l-2.7,0.4c-1.4,0.2-2.5,0.1-3.4-0.4c-0.9-0.4-1.6-1.2-2-2.2c-0.4-0.9-0.5-1.7-0.3-2.5s0.5-1.6,1.1-2.3
				c0.6-0.7,1.4-1.2,2.3-1.6c1.3-0.5,2.4-0.7,3.5-0.4C391.3,522.5,392.3,523.1,393.2,524.1z"/>
		</g>
	</g>
</g>
</svg>
