<?xml version="1.0" encoding="UTF-8"?>
<svg id="instagram" xmlns="http://www.w3.org/2000/svg" viewBox="0 0 800.47 800.47">
  <defs>
    <style>
      .cls-1 {
        fill: #fff;
        stroke-width: 0px;
      }
    </style>
  </defs>
  <path class="cls-1" d="m231.45,174.37h295.98c32.56,0,59.2,26.64,59.2,59.2v295.98c0,32.56-26.64,59.2-59.2,59.2H231.45c-32.56,0-59.2-26.64-59.2-59.2V233.57c0-32.56,26.64-59.2,59.2-59.2Zm226.43,113.95c-8.88,0-17.76,7.4-17.76,17.76s7.4,17.76,17.76,17.76,17.76-7.4,17.76-17.76c-1.48-10.36-8.88-17.76-17.76-17.76Zm-78.44,22.2c-39.96,0-72.52,32.56-72.52,72.52s32.56,72.52,72.52,72.52,72.52-32.56,72.52-72.52c1.48-39.96-31.08-72.52-72.52-72.52Zm0,119.87c-25.16,0-47.36-20.72-47.36-47.36,0-25.16,20.72-47.36,47.36-47.36,25.16,0,47.36,20.72,47.36,47.36s-20.72,47.36-47.36,47.36Zm59.2-196.83h-118.39c-48.84,0-88.79,39.96-88.79,88.79v118.39c0,48.84,39.96,88.79,88.79,88.79h118.39c48.84,0,88.79-39.96,88.79-88.79v-118.39c0-48.84-39.96-88.79-88.79-88.79Zm60.68,207.19c0,34.04-28.12,60.68-60.68,60.68h-118.39c-34.04,0-60.68-28.12-60.68-60.68v-118.39c0-34.04,28.12-60.68,60.68-60.68h118.39c34.04,0,60.68,28.12,60.68,60.68v118.39Z"/>
</svg>