<?xml version="1.0" encoding="UTF-8"?>
<svg id="Layer_4" data-name="Layer 4" xmlns="http://www.w3.org/2000/svg" viewBox="0 0 800.47 800.47">
  <defs>
    <style>
      .cls-1 {
        fill: none;
      }

      .cls-1, .cls-2 {
        stroke-width: 0px;
      }

      .cls-2 {
        fill: #fff;
      }
    </style>
  </defs>
  <path class="cls-2" d="m538.35,177.74H220.53c-24.18,0-44.91,20.73-44.91,44.91v317.82c0,24.18,20.73,44.91,44.91,44.91h317.82c24.18,0,44.91-20.73,44.91-44.91V222.65c0-24.18-20.73-44.91-44.91-44.91Zm-228,317.82h-58.73v-158.91h58.73v158.91Zm-27.64-190c-17.27,0-27.64-10.36-27.64-27.64s10.36-27.64,31.09-27.64c17.27,0,27.64,10.36,27.64,27.64,0,17.27-13.82,27.64-31.09,27.64Zm231.45,190h-55.27v-86.36c0-24.18-13.82-31.09-20.73-31.09s-24.18,3.45-24.18,31.09v86.36h-58.73v-158.91h58.73v20.73c6.91-13.82,20.73-20.73,48.36-20.73s48.36,20.73,48.36,72.54v86.36h3.45Z"/>
  <rect class="cls-1" width="800.47" height="800.47"/>
</svg>