<?xml version="1.0" encoding="UTF-8"?>
<svg id="youtube" xmlns="http://www.w3.org/2000/svg" viewBox="0 0 800.47 800.47">
  <defs>
    <style>
      .cls-1 {
        fill: #fff;
        stroke-width: 0px;
      }
    </style>
  </defs>
  <path class="cls-1" d="m505.55,218.45c25.22,2.52,58.01,0,75.67,20.18,20.18,20.18,22.7,52.97,22.7,78.19,2.52,30.27,2.52,73.14,2.52,100.89-2.52,27.74,0,60.53-12.61,85.76-12.61,27.74-35.31,37.83-63.06,40.36-30.27,2.52-216.91,2.52-277.44,0-27.74-2.52-60.53-2.52-80.71-25.22-17.66-20.18-17.66-50.44-20.18-75.67,0-30.27,0-73.14,0-103.41,0-27.74,0-60.53,12.61-85.76,12.61-25.22,37.83-30.27,65.58-32.79,30.27-2.52,214.39-5.04,274.92-2.52Zm-176.56,85.76v151.33l138.72-75.67-138.72-75.67Z"/>
</svg>